<svg width="20" height="21" viewBox="0 0 20 21" fill="none" xmlns="http://www.w3.org/2000/svg">
<circle cx="9.73311" cy="17.2456" r="3.64913" fill="white"/>
<path d="M2.9606 7.14968C2.9606 3.37891 6.00154 0.216339 9.7723 0.216339C13.5431 0.216339 16.584 3.37891 16.584 7.14968V10.069C16.584 11.1637 16.9489 12.1368 17.5571 12.9883L19.0168 14.9345C19.6249 15.6643 19.3817 16.759 18.5302 17.124C16.9489 17.7321 14.1513 18.5836 9.65067 18.5836C5.15008 18.5836 2.35242 17.7321 0.771128 17.124C-0.0803344 16.759 -0.201972 15.7859 0.284578 14.9345L1.74423 12.9883C2.59569 12.2585 2.9606 11.1637 2.9606 10.069V7.14968Z" fill="#8BCB85"/>
</svg>
