<svg width="20" height="20" viewBox="0 0 99 99" fill="none" xmlns="http://www.w3.org/2000/svg">
<path d="M49.4999 0.458252C23.918 0.458252 2.93707 20.0482 0.681152 45.0416H40.5832V31.6666C40.5832 29.8654 41.6711 28.2381 43.334 27.5471C45.0014 26.856 46.9185 27.2395 48.1936 28.5145L66.027 46.3479C67.7702 48.0911 67.7702 50.9088 66.027 52.652L48.1936 70.4853C46.9185 71.7604 45.0014 72.1438 43.334 71.4528C41.6711 70.7617 40.5832 69.1344 40.5832 67.3333V53.9583H0.681152C2.93707 78.9517 23.918 98.5416 49.4999 98.5416C76.5843 98.5416 98.5416 76.5843 98.5416 49.4999C98.5416 22.4155 76.5843 0.458252 49.4999 0.458252Z" fill="#8BCB85"/>
</svg>