<svg width="20" height="20" viewBox="0 0 20 20" fill="none" xmlns="http://www.w3.org/2000/svg">
<path d="M19.3957 0.0528797L0.206342 11.0422C-0.0927972 11.2151 -0.0604577 11.6637 0.262936 11.7872L5.82531 13.8822C5.97084 13.9357 6.13254 13.9027 6.24168 13.7957L12.9885 7.35853C13.3483 7.01691 13.8819 7.50258 13.5908 7.90594L8.50674 14.8873C8.50394 14.8912 8.50524 14.8966 8.50948 14.8988C8.50578 14.8969 8.5014 14.8996 8.5014 14.9037V19.5867C8.5014 19.9695 8.97032 20.1465 9.21286 19.8543L12.0264 16.5122C12.1355 16.3805 12.3134 16.3352 12.4751 16.3928L16.4569 17.8951C16.6914 17.9857 16.9501 17.8334 16.9945 17.5823L19.994 0.489161C20.0506 0.143429 19.6949 -0.11587 19.3957 0.0528797Z" fill="#80BA7C"/>
</svg>
