<svg width="20" height="16" viewBox="0 0 20 16" fill="none" xmlns="http://www.w3.org/2000/svg">
<path d="M6.68768 15.055C13.6674 15.055 17.4844 9.42235 17.4844 4.53788C17.4844 4.37789 17.481 4.21863 17.4737 4.06009C18.2146 3.53833 18.8586 2.88721 19.3665 2.14601C18.6866 2.4404 17.9549 2.63858 17.1874 2.72794C17.9708 2.27032 18.5723 1.54642 18.856 0.68345C18.1229 1.10684 17.3109 1.41456 16.4464 1.5807C15.754 0.862222 14.7682 0.412842 13.6766 0.412842C11.581 0.412842 9.88172 2.06823 9.88172 4.10872C9.88172 4.39879 9.91501 4.68093 9.98011 4.95156C6.82632 4.79697 4.02977 3.3261 2.15815 1.08954C1.83227 1.6358 1.64436 2.27034 1.64436 2.9474C1.64436 4.22982 2.31428 5.36195 3.333 6.02426C2.71043 6.00552 2.1256 5.83904 1.61444 5.56195C1.61388 5.57746 1.61388 5.59258 1.61388 5.60915C1.61388 7.3993 2.92189 8.89392 4.6582 9.2326C4.33934 9.31728 4.00385 9.36268 3.6576 9.36268C3.41346 9.36268 3.1756 9.33928 2.94441 9.29602C3.42751 10.7647 4.82837 11.8335 6.48921 11.8633C5.19046 12.855 3.55438 13.4456 1.77624 13.4456C1.47033 13.4456 1.16811 13.4286 0.871094 13.3944C2.55049 14.443 4.54462 15.0548 6.68788 15.0548" fill="black"/>
</svg>
