<svg width="22" height="19" viewBox="0 0 22 19" fill="none" xmlns="http://www.w3.org/2000/svg">
<path d="M17.6039 15.3824C15.3653 15.3824 13.5415 13.5545 13.5415 11.3109C13.5415 9.06741 15.3653 7.23951 17.6039 7.23951H19.8594V5.42857C19.8594 4.43192 19.0511 3.61763 18.0525 3.61763H17.1511V1.81094C17.1511 0.814286 16.3429 0 15.3442 0H2.70829C1.37107 0 0.262366 0.979687 0.0465488 2.26049C0.0253902 2.33683 0 2.40893 0 2.48951V16.2857C0 17.7828 1.2145 19 2.70829 19H18.0567C19.0511 19 19.8636 18.19 19.8636 17.1891V15.3781H17.6039V15.3824ZM1.80694 2.71429C1.80694 2.21384 2.21318 1.81094 2.70829 1.81094H15.3484V3.62187H2.70829C2.20895 3.61763 1.80694 3.21473 1.80694 2.71429Z" fill="#80BA7C"/>
<path d="M20.8998 8.63635H17.4453C15.921 8.63635 14.6816 9.79821 14.6816 11.2273C14.6816 12.6563 15.921 13.8182 17.4453 13.8182H20.8998C21.2798 13.8182 21.5907 13.5267 21.5907 13.1704V9.28408C21.5907 8.92378 21.2798 8.63635 20.8998 8.63635ZM17.4453 12.0895C16.9357 12.0895 16.5255 11.7009 16.5255 11.2273C16.5255 10.7496 16.94 10.365 17.4453 10.365C17.9505 10.365 18.365 10.7536 18.365 11.2273C18.365 11.7009 17.9548 12.0895 17.4453 12.0895Z" fill="white"/>
</svg>
