<svg width="20" height="20" viewBox="0 0 20 20" fill="none" xmlns="http://www.w3.org/2000/svg">
<path d="M5.66264 16.6884L5.94903 16.8583C7.15181 17.5729 8.5308 17.9508 9.93716 17.9515H9.94016C14.259 17.9515 17.7739 14.4336 17.7757 10.1097C17.7765 8.01434 16.9622 6.04397 15.4828 4.56182C14.0033 3.07967 12.0362 2.26303 9.94316 2.26214C5.62097 2.26214 2.10604 5.77971 2.10445 10.1033C2.10375 11.5849 2.51797 13.028 3.30228 14.2767L3.48874 14.5733L2.69701 17.4669L5.66264 16.6884ZM0.433594 19.7084L1.77109 14.8195C0.946169 13.3888 0.512166 11.7656 0.512696 10.1028C0.514816 4.90067 4.7436 0.668457 9.94016 0.668457C12.4619 0.669688 14.8288 1.65214 16.6089 3.43549C18.3886 5.21884 19.3685 7.58922 19.3676 10.1104C19.3653 15.3121 15.1358 19.5451 9.94016 19.5451C9.9398 19.5451 9.94052 19.5451 9.94016 19.5451H9.9361C8.35847 19.5444 6.80821 19.1482 5.43116 18.3965L0.433594 19.7084Z" fill="black"/>
<path fill-rule="evenodd" clip-rule="evenodd" d="M7.58455 6.15871C7.40798 5.76612 7.22223 5.75817 7.05449 5.75127C6.91712 5.74544 6.75998 5.74579 6.60301 5.74579C6.44587 5.74579 6.19073 5.80483 5.97496 6.04081C5.75902 6.27679 5.15039 6.8472 5.15039 8.00746C5.15039 9.16773 5.99456 10.2888 6.11215 10.4462C6.22992 10.6036 7.74169 13.0606 10.1361 14.0057C12.1259 14.7912 12.5307 14.635 12.9628 14.5957C13.3947 14.5565 14.3564 14.0253 14.5526 13.4747C14.7489 12.9241 14.7489 12.4523 14.6902 12.3537C14.6312 12.2552 14.4742 12.1964 14.2385 12.0785C14.003 11.9606 12.8448 11.39 12.6289 11.3113C12.413 11.2327 12.256 11.1934 12.0988 11.4294C11.9419 11.6654 11.4907 12.1964 11.3532 12.3537C11.2158 12.5112 11.0785 12.5308 10.8427 12.4129C10.6072 12.2946 9.8485 12.0459 8.94853 11.2426C8.24827 10.6175 7.7756 9.84561 7.63805 9.60963C7.50068 9.37366 7.62339 9.24604 7.74152 9.12849C7.84728 9.02278 7.97706 8.85309 8.09501 8.7154C8.21242 8.5777 8.2518 8.47942 8.33019 8.32228C8.40877 8.16478 8.36957 8.02708 8.31059 7.90918C8.2518 7.79128 7.79396 6.62501 7.58455 6.15871Z" fill="black"/>
</svg>
