<svg width="16" height="16" viewBox="0 0 16 16" fill="none" xmlns="http://www.w3.org/2000/svg">
<path d="M16 7.99996C16 3.58168 12.4183 -3.62396e-05 8 -3.62396e-05C3.58172 -3.62396e-05 0 3.58168 0 7.99996C0 11.993 2.92548 15.3026 6.75 15.9028V10.3125H4.71875V7.99996H6.75V6.23746C6.75 4.23246 7.94434 3.12496 9.77172 3.12496C10.647 3.12496 11.5625 3.28121 11.5625 3.28121V5.24996H10.5537C9.55992 5.24996 9.25 5.86664 9.25 6.49929V7.99996H11.4688L11.1141 10.3125H9.25V15.9028C13.0745 15.3026 16 11.993 16 7.99996Z" fill="#1877F2"/>
<path d="M11.1141 10.3125L11.4687 8H9.25V6.49933C9.25 5.86667 9.55992 5.25 10.5537 5.25H11.5625V3.28125C11.5625 3.28125 10.647 3.125 9.77172 3.125C7.94434 3.125 6.75 4.2325 6.75 6.2375V8H4.71875V10.3125H6.75V15.9028C7.1573 15.9667 7.57475 16 8 16C8.42525 16 8.8427 15.9667 9.25 15.9028V10.3125H11.1141Z" fill="white"/>
</svg>
