<svg width="14" height="14" viewBox="0 0 14 14" fill="none" xmlns="http://www.w3.org/2000/svg">
<path d="M13.8638 5.62904H13.3V5.59999H6.99999V8.39999H10.956C10.3789 10.0299 8.82804 11.2 6.99999 11.2C4.68055 11.2 2.8 9.31944 2.8 6.99999C2.8 4.68055 4.68055 2.8 6.99999 2.8C8.07064 2.8 9.04469 3.2039 9.78634 3.86365L11.7663 1.8837C10.5161 0.718549 8.84379 0 6.99999 0C3.13425 0 0 3.13425 0 6.99999C0 10.8657 3.13425 14 6.99999 14C10.8657 14 14 10.8657 14 6.99999C14 6.53064 13.9517 6.07249 13.8638 5.62904Z" fill="#FFC107"/>
<path d="M0.806641 3.74185L3.10649 5.42849C3.72879 3.8878 5.23589 2.8 6.99953 2.8C8.07018 2.8 9.04423 3.2039 9.78588 3.86365L11.7658 1.8837C10.5156 0.718549 8.84333 0 6.99953 0C4.31084 0 1.97914 1.51795 0.806641 3.74185Z" fill="#FF3D00"/>
<path d="M7.0003 14C8.8084 14 10.4513 13.3081 11.6934 12.1828L9.52695 10.3495C8.82415 10.8819 7.95055 11.2 7.0003 11.2C5.1796 11.2 3.63365 10.0391 3.05125 8.41891L0.768555 10.1777C1.92705 12.4446 4.27975 14 7.0003 14Z" fill="#4CAF50"/>
<path d="M13.8638 5.62906H13.3V5.60001H7V8.40001H10.956C10.6788 9.18296 10.1752 9.85811 9.5256 10.3499C9.52595 10.3495 9.5263 10.3495 9.52665 10.3492L11.6931 12.1825C11.5398 12.3218 14 10.5 14 7.00001C14 6.53066 13.9517 6.07251 13.8638 5.62906Z" fill="#1976D2"/>
</svg>
