<svg width="151" height="28" viewBox="0 0 151 28" fill="none" xmlns="http://www.w3.org/2000/svg">
<g clip-path="url(#clip0)">
<path d="M18.0746 28L7.10444 17.0298C4.28355 14.2089 4.28355 9.63804 7.10444 6.81715C9.92534 3.99625 14.4962 3.99625 17.3171 6.81715L18.0746 7.57461L18.7798 6.86939C21.6007 4.04849 26.1716 4.04849 28.9925 6.86939C31.8134 9.69028 31.8134 14.2612 28.9925 17.0821L18.0746 28Z" fill="#68FA28"/>
<path d="M37.2986 18.5448V8.46268H41.7389V17.3955C41.7389 20.4515 42.6531 21.4701 44.7426 21.4701C46.7016 21.4701 48.4516 19.8246 48.4516 16.6119V8.46268H52.9702V25.2052H48.4516V23.2201L48.3732 23.194C47.0934 24.7351 45.3172 25.5186 43.4366 25.5186C39.8322 25.5186 37.2986 23.6642 37.2986 18.5448Z" fill="black"/>
<path d="M57.306 8.46268H61.7986V10.6306H61.8769C63.209 9.06342 65.1418 8.2276 67.2053 8.2276C70.7575 8.2276 73.265 10.1343 73.265 15.2798V25.2052H68.7724V16.403C68.7724 13.2164 67.6493 12.2239 65.5598 12.2239C63.2874 12.2239 61.7986 13.791 61.7986 16.8209V25.2052H57.306V8.46268Z" fill="black"/>
<path d="M81.7538 23.1418L81.6754 23.1679V25.1791H77.418V0H81.9105V10.3694H81.9366C83.2165 8.93284 84.9404 8.20149 87.0038 8.20149C91.5224 8.20149 94.918 11.806 94.918 16.8731C94.918 22.0448 91.5224 25.4925 86.8732 25.4925C84.6269 25.5187 82.9553 24.6828 81.7538 23.1418ZM90.3732 16.9254C90.3732 14.0522 88.4665 12.2239 86.0635 12.2239C83.5038 12.2239 81.7277 14.209 81.7277 16.9254C81.7277 19.6679 83.6344 21.4701 86.1157 21.4701C88.5971 21.4701 90.3732 19.5896 90.3732 16.9254Z" fill="black"/>
<path d="M97.5299 16.847C97.5299 11.8582 101.082 8.2276 106.437 8.2276C111.634 8.2276 115.317 11.7276 115.317 16.847C115.317 21.9403 111.661 25.5186 106.437 25.5186C101.082 25.5186 97.5299 21.8358 97.5299 16.847ZM110.746 16.847C110.746 14.1045 108.892 12.2239 106.437 12.2239C103.825 12.2239 102.101 14.2089 102.101 16.847C102.101 19.4589 103.877 21.4701 106.437 21.4701C108.84 21.4701 110.746 19.5895 110.746 16.847Z" fill="black"/>
<path d="M121.69 16.6381L115.944 8.46268H121.09L124.172 13.2686H124.25L127.358 8.46268H132.452L126.731 16.6903L132.556 25.2052H127.619L124.276 20.3992H124.198L120.776 25.2052H115.918L121.69 16.6381Z" fill="black"/>
<path d="M133.418 16.8731C133.418 11.806 136.84 8.20149 141.332 8.20149C143.396 8.20149 145.172 8.95896 146.399 10.3955H146.478V0H150.918V25.2052H146.634V23.1418H146.608C145.433 24.6567 143.709 25.4925 141.437 25.4925C136.813 25.5187 133.418 22.0448 133.418 16.8731ZM146.634 16.9254C146.634 14.209 144.832 12.2239 142.246 12.2239C139.843 12.2239 137.963 14.0261 137.963 16.9254C137.963 19.5896 139.739 21.4701 142.246 21.4701C144.702 21.4701 146.634 19.6418 146.634 16.9254Z" fill="black"/>
<path d="M13.0858 28L2.11567 17.0299C-0.705224 14.1828 -0.705224 9.61195 2.11567 6.79106C4.93657 3.97016 9.50746 3.97016 12.3284 6.79106L13.0858 7.54852L13.791 6.8433C16.6119 4.0224 21.1828 4.0224 24.0037 6.8433C26.8246 9.66419 26.8246 14.2351 24.0037 17.056L13.0858 28Z" fill="black"/>
</g>
<defs>
<clipPath id="clip0">
<rect width="150.918" height="28" fill="white"/>
</clipPath>
</defs>
</svg>
