<svg width="90" height="70" viewBox="0 0 90 70" fill="none" xmlns="http://www.w3.org/2000/svg">
<path d="M61.557 67.2491L37.617 43.3091C31.461 37.1531 31.461 27.1781 37.617 21.0221C43.773 14.8661 53.748 14.8661 59.904 21.0221L61.557 22.6751L63.096 21.1361C69.252 14.9801 79.227 14.9801 85.383 21.1361C91.539 27.2921 91.539 37.2671 85.383 43.4231L61.557 67.2491Z" fill="#44CB50"/>
<path d="M39.078 69.654L6.318 36.894C-2.106 28.392 -2.106 14.742 6.318 6.318C14.742 -2.106 28.392 -2.106 36.816 6.318L39.078 8.58L41.184 6.474C49.608 -1.95 63.258 -1.95 71.682 6.474C80.106 14.898 80.106 28.548 71.682 36.972L39.078 69.654Z" fill="white"/>
</svg>
