<svg width="127" height="24" viewBox="0 0 127 24" fill="none" xmlns="http://www.w3.org/2000/svg">
<g clip-path="url(#clip0)">
<path d="M15.2092 23.8519L5.97764 14.6203C3.60381 12.2465 3.60381 8.39999 5.97764 6.02616C8.35147 3.65233 12.198 3.65233 14.5718 6.02616L15.2092 6.66358L15.8027 6.07012C18.1765 3.69629 22.023 3.69629 24.3968 6.07012C26.7706 8.44395 26.7706 12.2904 24.3968 14.6643L15.2092 23.8519Z" fill="#44CB50"/>
<path d="M31.3887 15.8951V7.41089H35.1253V14.928C35.1253 17.4997 35.8946 18.3569 37.6529 18.3569C39.3014 18.3569 40.7741 16.9722 40.7741 14.2686V7.41089H44.5766V21.5H40.7741V19.8295L40.7082 19.8076C39.6311 21.1044 38.1365 21.7638 36.554 21.7638C33.5207 21.7638 31.3887 20.2032 31.3887 15.8951Z" fill="white"/>
<path d="M48.2246 7.41089H52.0052V9.23523H52.0711C53.1921 7.91643 54.8186 7.21307 56.555 7.21307C59.5443 7.21307 61.6543 8.81761 61.6543 13.1477V21.5H57.8738V14.0928C57.8738 11.4112 56.9287 10.576 55.1703 10.576C53.258 10.576 52.0052 11.8948 52.0052 14.4445V21.5H48.2246V7.41089Z" fill="white"/>
<path d="M68.7991 19.7636L68.7331 19.7856V21.478H65.1504V0.289398H68.9309V9.01543H68.9529C70.0299 7.80653 71.4806 7.19109 73.217 7.19109C77.0195 7.19109 79.8769 10.2243 79.8769 14.4884C79.8769 18.8405 77.0195 21.7418 73.1071 21.7418C71.2168 21.7638 69.8101 21.0604 68.7991 19.7636ZM76.0524 14.5324C76.0524 12.1146 74.4479 10.576 72.4257 10.576C70.2717 10.576 68.7771 12.2465 68.7771 14.5324C68.7771 16.8403 70.3816 18.3569 72.4697 18.3569C74.5578 18.3569 76.0524 16.7743 76.0524 14.5324Z" fill="white"/>
<path d="M82.0742 14.4665C82.0742 10.2683 85.0635 7.21307 89.5694 7.21307C93.9434 7.21307 97.0426 10.1584 97.0426 14.4665C97.0426 18.7525 93.9654 21.7638 89.5694 21.7638C85.0635 21.7638 82.0742 18.6646 82.0742 14.4665ZM93.1961 14.4665C93.1961 12.1586 91.6355 10.576 89.5694 10.576C87.3714 10.576 85.9207 12.2465 85.9207 14.4665C85.9207 16.6644 87.4153 18.3569 89.5694 18.3569C91.5915 18.3569 93.1961 16.7743 93.1961 14.4665Z" fill="white"/>
<path d="M102.404 14.2906L97.5689 7.41089H101.899L104.493 11.4552H104.558L107.174 7.41089H111.46L106.647 14.3346L111.548 21.5H107.394L104.58 17.4557H104.515L101.635 21.5H97.5469L102.404 14.2906Z" fill="white"/>
<path d="M112.275 14.4884C112.275 10.2243 115.155 7.19109 118.935 7.19109C120.672 7.19109 122.166 7.82851 123.199 9.03741H123.265V0.289398H127.002V21.5H123.397V19.7636H123.375C122.386 21.0384 120.935 21.7418 119.023 21.7418C115.133 21.7638 112.275 18.8405 112.275 14.4884ZM123.397 14.5324C123.397 12.2465 121.881 10.576 119.705 10.576C117.682 10.576 116.1 12.0926 116.1 14.5324C116.1 16.7743 117.595 18.3569 119.705 18.3569C121.771 18.3569 123.397 16.8183 123.397 14.5324Z" fill="white"/>
<path d="M11.0119 23.8519L1.78037 14.6203C-0.593458 12.2245 -0.593458 8.37799 1.78037 6.00416C4.15421 3.63033 8.00069 3.63033 10.3745 6.00416L11.0119 6.64158L11.6054 6.04812C13.9792 3.67429 17.8257 3.67429 20.1995 6.04812C22.5734 8.42195 22.5734 12.2684 20.1995 14.6423L11.0119 23.8519Z" fill="white"/>
</g>
<defs>
<clipPath id="clip0">
<rect width="127" height="23.5625" fill="white" transform="translate(0 0.289368)"/>
</clipPath>
</defs>
</svg>
